<?xml version="1.0" encoding="UTF-8" standalone="no"?>
<!DOCTYPE svg PUBLIC "-//W3C//DTD SVG 1.1//EN" "http://www.w3.org/Graphics/SVG/1.1/DTD/svg11.dtd">
<svg width="100%" height="100%" viewBox="0 0 1426 889" version="1.1" xmlns="http://www.w3.org/2000/svg" xmlns:xlink="http://www.w3.org/1999/xlink" xml:space="preserve" xmlns:serif="http://www.serif.com/" style="fill-rule:evenodd;clip-rule:evenodd;stroke-linejoin:round;stroke-miterlimit:2;">
    <g transform="matrix(3.9238,0,0,3.9238,-10914.6,-977.739)">
        <g transform="matrix(80.9824,0,0,80.9824,2781.23,313.153)">
            <path d="M0.861,-0L0.861,-0.007C0.753,-0.007 0.753,-0.063 0.753,-0.18L0.753,-0.52C0.753,-0.641 0.753,-0.693 0.861,-0.693L0.861,-0.7L0.47,-0.7L0.47,-0.693C0.538,-0.693 0.547,-0.657 0.547,-0.55L0.547,-0.36L0.319,-0.36L0.319,-0.55C0.319,-0.657 0.328,-0.693 0.396,-0.693L0.396,-0.7L0.005,-0.7L0.005,-0.693C0.113,-0.693 0.113,-0.641 0.113,-0.52L0.113,-0.18C0.113,-0.063 0.113,-0.007 0.005,-0.007L0.005,-0L0.396,-0L0.396,-0.007C0.328,-0.007 0.319,-0.043 0.319,-0.15L0.319,-0.35L0.547,-0.35L0.547,-0.15C0.547,-0.043 0.538,-0.007 0.47,-0.007L0.47,-0L0.861,-0Z" style="fill:white;fill-rule:nonzero;"/>
        </g>
        <g transform="matrix(80.9824,0,0,80.9824,2851.36,313.153)">
            <path d="M0.55,-0.32C0.582,-0.447 0.491,-0.532 0.326,-0.532C0.163,-0.532 0.025,-0.425 0.025,-0.265C0.025,-0.105 0.129,0.007 0.292,0.007C0.435,0.007 0.525,-0.086 0.572,-0.205L0.566,-0.208C0.531,-0.15 0.477,-0.112 0.398,-0.112C0.268,-0.112 0.213,-0.215 0.213,-0.32L0.55,-0.32ZM0.31,-0.524C0.39,-0.524 0.389,-0.392 0.373,-0.33L0.213,-0.33C0.214,-0.4 0.239,-0.524 0.31,-0.524Z" style="fill:white;fill-rule:nonzero;"/>
        </g>
        <g transform="matrix(80.9824,0,0,80.9824,2898.89,313.153)">
            <path d="M0.279,-0.032L0.279,-0.532L-0.007,-0.455L-0.005,-0.448C0.08,-0.468 0.094,-0.441 0.094,-0.374L0.094,-0.03C0.17,-0.01 0.204,0.058 0.204,0.12C0.204,0.167 0.178,0.209 0.131,0.209C0.105,0.209 0.09,0.192 0.09,0.165C0.09,0.135 0.112,0.112 0.136,0.104C0.133,0.041 0.088,0.012 0.038,0.012C-0.016,0.012 -0.065,0.047 -0.065,0.114C-0.065,0.2 0.023,0.225 0.089,0.225C0.243,0.225 0.279,0.088 0.279,-0.032ZM0.186,-0.79C0.127,-0.79 0.078,-0.742 0.078,-0.683C0.078,-0.623 0.127,-0.574 0.186,-0.574C0.246,-0.574 0.294,-0.623 0.294,-0.683C0.294,-0.743 0.246,-0.79 0.186,-0.79Z" style="fill:white;fill-rule:nonzero;"/>
        </g>
        <g transform="matrix(80.9824,0,0,80.9824,2927.4,313.153)">
            <path d="M0.109,0.146C0.188,0.085 0.24,-0.001 0.24,-0.072C0.24,-0.139 0.193,-0.185 0.137,-0.185C0.082,-0.185 0.024,-0.128 0.045,-0.058C0.147,-0.017 0.181,0.065 0.103,0.141L0.109,0.146Z" style="fill:white;fill-rule:nonzero;"/>
        </g>
        <g transform="matrix(80.9824,0,0,80.9824,2781.23,394.135)">
            <path d="M0.005,-0.7L0.005,-0.693C0.113,-0.693 0.113,-0.641 0.113,-0.52L0.113,-0.18C0.113,-0.063 0.113,-0.007 0.005,-0.007L0.005,-0L0.408,-0C0.607,-0 0.729,-0.075 0.729,-0.2C0.729,-0.359 0.505,-0.385 0.399,-0.386L0.399,-0.388C0.499,-0.391 0.683,-0.406 0.683,-0.538C0.683,-0.699 0.464,-0.7 0.29,-0.7L0.005,-0.7ZM0.319,-0.39L0.319,-0.693L0.345,-0.693C0.453,-0.693 0.482,-0.639 0.482,-0.544C0.482,-0.438 0.451,-0.39 0.347,-0.39L0.319,-0.39ZM0.319,-0.382L0.352,-0.382C0.485,-0.382 0.509,-0.313 0.509,-0.2C0.509,-0.069 0.472,-0.007 0.386,-0.007C0.322,-0.007 0.319,-0.029 0.319,-0.124L0.319,-0.382Z" style="fill:white;fill-rule:nonzero;"/>
        </g>
        <g transform="matrix(80.9824,0,0,80.9824,2841.88,394.135)">
            <path d="M0.315,-0.532C0.152,-0.532 0.025,-0.418 0.025,-0.262C0.025,-0.107 0.152,0.007 0.315,0.007C0.479,0.007 0.606,-0.107 0.606,-0.262C0.606,-0.418 0.479,-0.532 0.315,-0.532ZM0.315,-0.001C0.228,-0.001 0.228,-0.145 0.228,-0.262C0.228,-0.376 0.228,-0.524 0.315,-0.524C0.403,-0.524 0.403,-0.376 0.403,-0.262C0.403,-0.145 0.403,-0.001 0.315,-0.001Z" style="fill:white;fill-rule:nonzero;"/>
        </g>
        <g transform="matrix(80.9824,0,0,80.9824,2892.98,394.135)">
            <path d="M0.704,-0L0.704,-0.007C0.626,-0.007 0.617,-0.027 0.617,-0.134L0.617,-0.385C0.617,-0.487 0.582,-0.532 0.501,-0.532C0.44,-0.532 0.379,-0.505 0.28,-0.424L0.283,-0.532L-0.005,-0.455L-0.003,-0.448C0.082,-0.468 0.096,-0.441 0.096,-0.374L0.096,-0.134C0.096,-0.027 0.087,-0.007 0.009,-0.007L0.009,-0L0.336,-0L0.336,-0.007C0.282,-0.007 0.281,-0.051 0.281,-0.114L0.281,-0.415C0.311,-0.441 0.345,-0.454 0.369,-0.454C0.427,-0.454 0.432,-0.4 0.432,-0.359L0.432,-0.114C0.432,-0.034 0.431,-0.007 0.378,-0.007L0.378,-0L0.704,-0Z" style="fill:white;fill-rule:nonzero;"/>
        </g>
        <g transform="matrix(80.9824,0,0,80.9824,2950.4,394.135)">
            <path d="M0.279,-0.032L0.279,-0.532L-0.007,-0.455L-0.005,-0.448C0.08,-0.468 0.094,-0.441 0.094,-0.374L0.094,-0.03C0.17,-0.01 0.204,0.058 0.204,0.12C0.204,0.167 0.178,0.209 0.131,0.209C0.105,0.209 0.09,0.192 0.09,0.165C0.09,0.135 0.112,0.112 0.136,0.104C0.133,0.041 0.088,0.012 0.038,0.012C-0.016,0.012 -0.065,0.047 -0.065,0.114C-0.065,0.2 0.023,0.225 0.089,0.225C0.243,0.225 0.279,0.088 0.279,-0.032ZM0.186,-0.79C0.127,-0.79 0.078,-0.742 0.078,-0.683C0.078,-0.623 0.127,-0.574 0.186,-0.574C0.246,-0.574 0.294,-0.623 0.294,-0.683C0.294,-0.743 0.246,-0.79 0.186,-0.79Z" style="fill:white;fill-rule:nonzero;"/>
        </g>
        <g transform="matrix(80.9824,0,0,80.9824,2978.9,394.135)">
            <path d="M0.315,-0.532C0.152,-0.532 0.025,-0.418 0.025,-0.262C0.025,-0.107 0.152,0.007 0.315,0.007C0.479,0.007 0.606,-0.107 0.606,-0.262C0.606,-0.418 0.479,-0.532 0.315,-0.532ZM0.315,-0.001C0.228,-0.001 0.228,-0.145 0.228,-0.262C0.228,-0.376 0.228,-0.524 0.315,-0.524C0.403,-0.524 0.403,-0.376 0.403,-0.262C0.403,-0.145 0.403,-0.001 0.315,-0.001Z" style="fill:white;fill-rule:nonzero;"/>
        </g>
        <g transform="matrix(80.9824,0,0,80.9824,3030,394.135)">
            <path d="M0.412,-0.11C0.382,-0.084 0.348,-0.071 0.324,-0.071C0.266,-0.071 0.261,-0.125 0.261,-0.166L0.261,-0.532L-0.02,-0.494L-0.019,-0.487C0.073,-0.499 0.076,-0.465 0.076,-0.398L0.076,-0.14C0.076,-0.038 0.111,0.007 0.192,0.007C0.253,0.007 0.316,-0.018 0.415,-0.102C0.412,-0.032 0.428,0.007 0.502,0.007C0.543,0.007 0.602,-0.006 0.685,-0.031L0.684,-0.038C0.603,-0.022 0.597,-0.06 0.597,-0.127L0.597,-0.532L0.336,-0.497L0.337,-0.49C0.411,-0.501 0.412,-0.465 0.412,-0.398L0.412,-0.11Z" style="fill:white;fill-rule:nonzero;"/>
        </g>
        <g transform="matrix(80.9824,0,0,80.9824,3085.07,394.135)">
            <path d="M0.283,-0.532L-0.005,-0.455L-0.003,-0.448C0.082,-0.468 0.096,-0.441 0.096,-0.374L0.096,-0.134C0.096,-0.027 0.087,-0.007 0.009,-0.007L0.009,-0L0.388,-0L0.388,-0.007C0.286,-0.007 0.281,-0.027 0.281,-0.134L0.281,-0.375C0.3,-0.434 0.336,-0.507 0.391,-0.507C0.419,-0.507 0.433,-0.476 0.433,-0.447C0.433,-0.416 0.417,-0.382 0.383,-0.374C0.386,-0.317 0.427,-0.29 0.472,-0.29C0.537,-0.29 0.581,-0.349 0.581,-0.408C0.581,-0.49 0.508,-0.532 0.44,-0.532C0.345,-0.532 0.304,-0.463 0.28,-0.396L0.283,-0.532Z" style="fill:white;fill-rule:nonzero;"/>
        </g>
        <g transform="matrix(80.9824,0,0,80.9824,3125.56,394.135)">
            <path d="M0.109,0.146C0.188,0.085 0.24,-0.001 0.24,-0.072C0.24,-0.139 0.193,-0.185 0.137,-0.185C0.082,-0.185 0.024,-0.128 0.045,-0.058C0.147,-0.017 0.181,0.065 0.103,0.141L0.109,0.146Z" style="fill:white;fill-rule:nonzero;"/>
        </g>
        <g transform="matrix(80.9824,0,0,80.9824,2781.23,475.117)">
            <path d="M0.861,-0L0.861,-0.007C0.753,-0.007 0.753,-0.063 0.753,-0.18L0.753,-0.52C0.753,-0.641 0.753,-0.693 0.861,-0.693L0.861,-0.7L0.47,-0.7L0.47,-0.693C0.538,-0.693 0.547,-0.657 0.547,-0.55L0.547,-0.36L0.319,-0.36L0.319,-0.55C0.319,-0.657 0.328,-0.693 0.396,-0.693L0.396,-0.7L0.005,-0.7L0.005,-0.693C0.113,-0.693 0.113,-0.641 0.113,-0.52L0.113,-0.18C0.113,-0.063 0.113,-0.007 0.005,-0.007L0.005,-0L0.396,-0L0.396,-0.007C0.328,-0.007 0.319,-0.043 0.319,-0.15L0.319,-0.35L0.547,-0.35L0.547,-0.15C0.547,-0.043 0.538,-0.007 0.47,-0.007L0.47,-0L0.861,-0Z" style="fill:white;fill-rule:nonzero;"/>
        </g>
        <g transform="matrix(80.9824,0,0,80.9824,2851.36,475.117)">
            <path d="M0.55,-0.32C0.582,-0.447 0.491,-0.532 0.326,-0.532C0.163,-0.532 0.025,-0.425 0.025,-0.265C0.025,-0.105 0.129,0.007 0.292,0.007C0.435,0.007 0.525,-0.086 0.572,-0.205L0.566,-0.208C0.531,-0.15 0.477,-0.112 0.398,-0.112C0.268,-0.112 0.213,-0.215 0.213,-0.32L0.55,-0.32ZM0.31,-0.524C0.39,-0.524 0.389,-0.392 0.373,-0.33L0.213,-0.33C0.214,-0.4 0.239,-0.524 0.31,-0.524Z" style="fill:white;fill-rule:nonzero;"/>
        </g>
        <g transform="matrix(80.9824,0,0,80.9824,2898.89,475.117)">
            <path d="M0.368,-0L0.368,-0.007C0.29,-0.007 0.281,-0.027 0.281,-0.134L0.281,-0.79L-0.005,-0.713L-0.003,-0.706C0.082,-0.726 0.096,-0.699 0.096,-0.632L0.096,-0.134C0.096,-0.027 0.087,-0.007 0.009,-0.007L0.009,-0L0.368,-0Z" style="fill:white;fill-rule:nonzero;"/>
        </g>
        <g transform="matrix(80.9824,0,0,80.9824,2929.1,475.117)">
            <path d="M0.368,-0L0.368,-0.007C0.29,-0.007 0.281,-0.027 0.281,-0.134L0.281,-0.79L-0.005,-0.713L-0.003,-0.706C0.082,-0.726 0.096,-0.699 0.096,-0.632L0.096,-0.134C0.096,-0.027 0.087,-0.007 0.009,-0.007L0.009,-0L0.368,-0Z" style="fill:white;fill-rule:nonzero;"/>
        </g>
        <g transform="matrix(80.9824,0,0,80.9824,2959.31,475.117)">
            <path d="M0.315,-0.532C0.152,-0.532 0.025,-0.418 0.025,-0.262C0.025,-0.107 0.152,0.007 0.315,0.007C0.479,0.007 0.606,-0.107 0.606,-0.262C0.606,-0.418 0.479,-0.532 0.315,-0.532ZM0.315,-0.001C0.228,-0.001 0.228,-0.145 0.228,-0.262C0.228,-0.376 0.228,-0.524 0.315,-0.524C0.403,-0.524 0.403,-0.376 0.403,-0.262C0.403,-0.145 0.403,-0.001 0.315,-0.001Z" style="fill:white;fill-rule:nonzero;"/>
        </g>
        <g transform="matrix(80.9824,0,0,80.9824,3010.41,475.117)">
            <path d="M0.136,-0.185C0.083,-0.185 0.04,-0.142 0.04,-0.089C0.04,-0.036 0.083,0.007 0.136,0.007C0.188,0.007 0.232,-0.035 0.232,-0.089C0.232,-0.142 0.189,-0.185 0.136,-0.185Z" style="fill:white;fill-rule:nonzero;"/>
        </g>
    </g>
</svg>
