<?xml version="1.0" encoding="UTF-8" standalone="no"?>
<!DOCTYPE svg PUBLIC "-//W3C//DTD SVG 1.1//EN" "http://www.w3.org/Graphics/SVG/1.1/DTD/svg11.dtd">
<svg width="100%" height="100%" viewBox="0 0 1235 198" version="1.1" xmlns="http://www.w3.org/2000/svg" xmlns:xlink="http://www.w3.org/1999/xlink" xml:space="preserve" xmlns:serif="http://www.serif.com/" style="fill-rule:evenodd;clip-rule:evenodd;stroke-linejoin:round;stroke-miterlimit:2;">
    <g transform="matrix(0.575474,0,0,0.575474,-583.56,-703.217)">
        <g transform="matrix(426.236,0,0,426.236,1005.5,1562.51)">
            <path d="M0.02,-0.35C0.02,-0.14 0.206,0.007 0.421,0.007C0.484,0.007 0.546,-0.005 0.581,-0.015L0.655,0.005L0.671,-0.274L0.664,-0.274C0.652,-0.158 0.584,-0.002 0.428,-0.002C0.263,-0.002 0.24,-0.205 0.24,-0.35C0.24,-0.495 0.263,-0.698 0.428,-0.698C0.584,-0.698 0.652,-0.542 0.664,-0.426L0.671,-0.426L0.655,-0.705L0.581,-0.685C0.546,-0.695 0.484,-0.707 0.421,-0.707C0.206,-0.707 0.02,-0.56 0.02,-0.35L0.02,-0.35Z" style="fill-rule:nonzero;"/>
        </g>
        <g transform="matrix(426.236,0,0,426.236,1308.55,1562.51)">
            <path d="M0.315,-0.532C0.152,-0.532 0.025,-0.418 0.025,-0.262C0.025,-0.107 0.152,0.007 0.315,0.007C0.479,0.007 0.606,-0.107 0.606,-0.262C0.606,-0.418 0.479,-0.532 0.315,-0.532ZM0.315,-0.001C0.228,-0.001 0.228,-0.145 0.228,-0.262C0.228,-0.376 0.228,-0.524 0.315,-0.524C0.403,-0.524 0.403,-0.376 0.403,-0.262C0.403,-0.145 0.403,-0.001 0.315,-0.001Z" style="fill-rule:nonzero;"/>
        </g>
        <g transform="matrix(426.236,0,0,426.236,1577.51,1562.51)">
            <path d="M0.765,-0L0.765,-0.007C0.663,-0.007 0.658,-0.027 0.658,-0.134L0.658,-0.515L0.755,-0.515L0.755,-0.525L0.681,-0.525C0.508,-0.525 0.474,-0.788 0.608,-0.788C0.643,-0.788 0.658,-0.769 0.658,-0.741C0.658,-0.707 0.636,-0.682 0.612,-0.671C0.615,-0.608 0.66,-0.579 0.71,-0.579C0.763,-0.579 0.813,-0.614 0.813,-0.681C0.813,-0.776 0.713,-0.799 0.641,-0.799C0.479,-0.799 0.457,-0.664 0.474,-0.525L0.3,-0.525C0.127,-0.525 0.097,-0.771 0.231,-0.771C0.266,-0.771 0.281,-0.752 0.281,-0.724C0.281,-0.69 0.259,-0.665 0.235,-0.654C0.238,-0.591 0.283,-0.562 0.333,-0.562C0.386,-0.562 0.436,-0.597 0.436,-0.664C0.436,-0.759 0.336,-0.782 0.264,-0.782C0.102,-0.782 0.076,-0.664 0.093,-0.525L0.006,-0.525L0.006,-0.515L0.092,-0.515L0.092,-0.134C0.092,-0.027 0.083,-0.007 0.005,-0.007L0.005,-0L0.364,-0L0.364,-0.007C0.286,-0.007 0.277,-0.027 0.277,-0.134L0.277,-0.515L0.473,-0.515L0.473,-0.134C0.473,-0.027 0.464,-0.007 0.386,-0.007L0.386,-0L0.765,-0Z" style="fill-rule:nonzero;"/>
        </g>
        <g transform="matrix(426.236,0,0,426.236,1902.3,1562.51)">
            <path d="M0.55,-0.32C0.582,-0.447 0.491,-0.532 0.326,-0.532C0.163,-0.532 0.025,-0.425 0.025,-0.265C0.025,-0.105 0.129,0.007 0.292,0.007C0.435,0.007 0.525,-0.086 0.572,-0.205L0.566,-0.208C0.531,-0.15 0.477,-0.112 0.398,-0.112C0.268,-0.112 0.213,-0.215 0.213,-0.32L0.55,-0.32ZM0.31,-0.524C0.39,-0.524 0.389,-0.392 0.373,-0.33L0.213,-0.33C0.214,-0.4 0.239,-0.524 0.31,-0.524Z" style="fill-rule:nonzero;"/>
        </g>
        <g transform="matrix(426.236,0,0,426.236,2152.5,1562.51)">
            <path d="M0.55,-0.32C0.582,-0.447 0.491,-0.532 0.326,-0.532C0.163,-0.532 0.025,-0.425 0.025,-0.265C0.025,-0.105 0.129,0.007 0.292,0.007C0.435,0.007 0.525,-0.086 0.572,-0.205L0.566,-0.208C0.531,-0.15 0.477,-0.112 0.398,-0.112C0.268,-0.112 0.213,-0.215 0.213,-0.32L0.55,-0.32ZM0.31,-0.524C0.39,-0.524 0.389,-0.392 0.373,-0.33L0.213,-0.33C0.214,-0.4 0.239,-0.524 0.31,-0.524Z" style="fill-rule:nonzero;"/>
        </g>
        <g transform="matrix(426.236,0,0,426.236,2489.23,1562.51)">
            <path d="M0.02,-0.35C0.02,-0.14 0.206,0.007 0.421,0.007C0.484,0.007 0.546,-0.005 0.581,-0.015L0.655,0.005L0.671,-0.274L0.664,-0.274C0.652,-0.158 0.584,-0.002 0.428,-0.002C0.263,-0.002 0.24,-0.205 0.24,-0.35C0.24,-0.495 0.263,-0.698 0.428,-0.698C0.584,-0.698 0.652,-0.542 0.664,-0.426L0.671,-0.426L0.655,-0.705L0.581,-0.685C0.546,-0.695 0.484,-0.707 0.421,-0.707C0.206,-0.707 0.02,-0.56 0.02,-0.35L0.02,-0.35Z" style="fill-rule:nonzero;"/>
        </g>
        <g transform="matrix(426.236,0,0,426.236,2792.28,1562.51)">
            <path d="M0.315,-0.532C0.152,-0.532 0.025,-0.418 0.025,-0.262C0.025,-0.107 0.152,0.007 0.315,0.007C0.479,0.007 0.606,-0.107 0.606,-0.262C0.606,-0.418 0.479,-0.532 0.315,-0.532ZM0.315,-0.001C0.228,-0.001 0.228,-0.145 0.228,-0.262C0.228,-0.376 0.228,-0.524 0.315,-0.524C0.403,-0.524 0.403,-0.376 0.403,-0.262C0.403,-0.145 0.403,-0.001 0.315,-0.001Z" style="fill-rule:nonzero;"/>
        </g>
        <g transform="matrix(426.236,0,0,426.236,3061.24,1562.51)">
            <path d="M0.136,-0.185C0.083,-0.185 0.04,-0.142 0.04,-0.089C0.04,-0.036 0.083,0.007 0.136,0.007C0.188,0.007 0.232,-0.035 0.232,-0.089C0.232,-0.142 0.189,-0.185 0.136,-0.185Z" style="fill-rule:nonzero;"/>
        </g>
    </g>
</svg>
